<?xml version="1.0" standalone="no"?>
<!DOCTYPE svg PUBLIC "-//W3C//DTD SVG 20010904//EN"
 "http://www.w3.org/TR/2001/REC-SVG-20010904/DTD/svg10.dtd">
<svg version="1.0" xmlns="http://www.w3.org/2000/svg"
 width="1600.000000pt" height="1600.000000pt" viewBox="0 0 1600.000000 1600.000000"
 preserveAspectRatio="xMidYMid meet">

<g transform="translate(0.000000,1600.000000) scale(0.100000,-0.100000)"
fill="#000000" stroke="none">
<path d="M0 8000 l0 -8000 8000 0 8000 0 0 8000 0 8000 -8000 0 -8000 0 0
-8000z m4295 1105 c181 -57 185 -58 185 -79 0 -12 -7 -70 -15 -130 -8 -60 -12
-112 -9 -117 2 -4 17 -14 32 -22 38 -20 94 -52 141 -81 22 -15 43 -26 47 -26
3 0 14 -10 25 -22 15 -18 18 -20 19 -7 0 11 18 23 52 34 29 9 74 28 100 41 26
13 48 20 48 15 0 -5 -20 -17 -45 -28 -51 -21 -56 -30 -19 -39 l25 -6 -2 -289
c-1 -159 -3 -289 -4 -289 -2 0 -13 28 -25 63 -13 34 -29 69 -37 78 -7 8 -13
21 -13 27 0 7 -4 12 -9 12 -5 0 -12 9 -16 20 -7 23 -153 170 -168 170 -6 0
-19 7 -29 17 -15 13 -18 14 -18 2 0 -8 5 -20 11 -26 6 -6 12 -26 13 -44 2 -19
4 -40 5 -46 0 -7 8 -13 16 -13 8 0 15 -5 15 -11 0 -6 18 -36 40 -66 22 -31 40
-62 40 -70 0 -7 4 -13 9 -13 5 0 11 -10 14 -22 7 -28 34 -106 47 -133 5 -11
11 -36 12 -55 3 -35 3 -35 56 -38 45 -3 57 1 72 18 17 20 19 20 29 3 8 -15 11
-10 12 27 2 44 2 44 6 8 4 -37 5 -38 46 -40 23 -1 57 -2 75 -3 18 -1 35 2 38
6 3 5 16 9 29 9 13 0 27 5 30 10 3 6 11 10 16 10 6 0 8 -4 4 -9 -3 -6 33 -11
85 -13 69 -2 89 0 85 10 -2 6 2 12 9 12 9 0 13 -8 10 -22 -2 -13 -2 -18 2 -11
3 8 13 9 27 5 12 -5 146 -4 297 1 279 8 1839 3 2205 -8 110 -3 292 -10 405
-15 113 -6 336 -15 495 -20 160 -6 304 -14 320 -19 17 -5 59 -9 95 -10 36 -1
79 -5 95 -8 29 -7 28 -7 -15 -14 -25 -4 -124 -8 -220 -8 -275 -1 -1355 -20
-1785 -32 -214 -6 -541 -14 -725 -19 -498 -13 -1354 -50 -1745 -76 -121 -8
-294 -19 -385 -24 -91 -6 -190 -12 -220 -15 -139 -13 -363 -26 -378 -22 -9 3
1 6 23 7 22 1 51 6 65 10 18 6 11 7 -21 4 -26 -3 -63 -6 -83 -7 -35 -1 -53
-17 -19 -17 41 0 1 -9 -67 -15 -41 -3 -82 -8 -92 -11 -9 -3 -19 0 -23 6 -4 6
5 11 22 12 19 1 14 3 -17 8 -43 7 -43 7 -10 9 29 1 32 3 18 12 -10 5 -18 17
-18 24 0 15 -16 20 -57 16 -12 -1 -25 4 -29 10 -4 8 0 9 15 4 12 -4 21 -2 21
4 0 6 16 19 35 28 41 19 44 30 13 43 -13 5 -18 9 -13 10 6 1 -1 6 -15 10 -17
6 -1 8 53 9 43 1 86 5 95 10 18 9 97 16 342 26 80 4 159 11 175 16 17 5 91 11
165 14 74 3 139 10 144 15 14 14 -32 144 -74 209 -122 188 -293 282 -576 315
-62 8 -237 -16 -316 -42 -153 -51 -316 -190 -381 -325 -20 -42 -37 -88 -37
-101 0 -14 -3 -27 -7 -29 -5 -3 -8 -41 -8 -85 0 -60 -3 -78 -12 -75 -7 3 -13
9 -13 14 0 5 -5 9 -11 9 -5 0 -8 -4 -4 -9 7 -13 -18 -19 -90 -23 l-60 -3 0 65
c1 36 4 79 7 95 4 17 7 38 7 48 1 9 6 16 12 15 6 -2 14 3 16 10 3 6 0 12 -5
12 -13 0 13 92 44 155 13 28 24 58 24 68 0 9 7 17 15 17 10 0 15 10 15 29 0
17 5 33 10 36 6 3 10 17 10 31 0 14 -4 23 -9 19 -6 -3 -8 3 -6 15 2 11 -1 22
-6 25 -11 7 -119 -94 -119 -111 0 -6 -9 -19 -20 -29 -11 -10 -20 -23 -20 -28
0 -6 -7 -18 -16 -28 -8 -9 -17 -26 -19 -36 -2 -10 -4 -20 -4 -23 -1 -3 -6 2
-11 10 -9 13 -11 13 -20 0 -5 -8 -9 -26 -9 -40 0 -25 0 -25 9 -2 5 12 11 22
13 22 8 0 -5 -50 -14 -56 -5 -3 -9 -20 -9 -39 0 -18 -5 -35 -11 -37 -6 -2 -12
-56 -16 -131 -5 -112 -8 -127 -24 -127 -9 0 -20 -6 -22 -12 -3 -7 -6 -5 -6 6
-1 17 -7 18 -61 13 -33 -4 -70 -3 -83 2 -24 9 -97 -7 -97 -21 0 -11 14 -10 44
2 32 12 98 -7 73 -21 -8 -5 -24 -8 -34 -7 -36 3 -64 -2 -59 -11 3 -4 -18 -11
-46 -14 -28 -4 -54 -11 -57 -16 -6 -9 -55 -14 -112 -12 -21 1 -26 6 -27 29 0
15 -3 65 -6 112 -3 47 -2 77 2 67 4 -10 7 -38 7 -62 0 -25 5 -45 10 -45 6 0
10 35 11 83 1 64 -1 73 -7 42 l-7 -40 1 48 c2 40 0 45 -10 30 -12 -16 -13 -16
-13 0 0 38 45 29 64 -13 3 -9 4 -5 2 8 -3 16 1 22 14 22 10 0 25 6 32 13 22
22 144 51 153 36 3 -4 -16 -11 -42 -15 -40 -6 -44 -9 -23 -14 14 -3 27 -2 29
3 2 5 8 3 13 -4 7 -11 11 -11 15 -1 2 6 12 12 20 12 9 0 13 6 9 15 -3 9 0 15
8 15 7 0 21 9 31 20 10 11 13 20 7 20 -13 0 25 112 42 122 9 5 12 39 12 113
-1 112 -7 125 -51 125 -17 0 -17 -2 5 -13 17 -8 25 -21 25 -37 -1 -14 4 -28 9
-32 6 -4 7 -10 3 -14 -3 -4 -37 19 -74 51 -85 73 -116 105 -110 111 2 3 12 -3
22 -13 17 -16 17 -16 11 3 -8 27 30 66 44 45 4 -8 7 6 5 34 -3 42 0 52 26 77
16 16 29 34 29 39 0 5 5 9 10 9 17 0 11 -40 -7 -47 -23 -8 -57 -43 -43 -43 7
0 8 -6 0 -19 -6 -12 -6 -22 -1 -26 5 -3 11 5 13 17 2 17 11 24 33 26 40 5 55
19 55 52 0 18 6 29 18 32 32 8 133 2 140 -8 4 -5 26 -16 50 -24 24 -7 51 -20
60 -28 14 -11 15 -13 1 -9 -9 3 -31 1 -50 -3 -30 -7 -28 -8 16 -5 28 2 53 3
57 4 4 1 5 8 2 16 -4 8 -1 15 5 15 10 0 15 -14 12 -34 -2 -9 50 1 62 13 4 4
-5 6 -21 3 -46 -6 -48 21 -3 52 40 28 56 33 45 14 -4 -7 -4 -10 0 -6 4 3 6 9
4 12 -6 9 97 76 110 71 7 -3 10 -1 7 4 -3 5 -1 12 5 16 5 3 10 1 10 -5 0 -6 5
-8 11 -4 8 5 8 9 -1 14 -6 4 -15 31 -20 61 -4 30 -11 65 -15 79 -4 14 -8 43
-9 65 -1 23 -6 46 -10 53 -5 8 0 12 13 12 11 0 22 4 25 9 7 11 116 45 251 80
l36 9 64 -91 c35 -51 71 -102 80 -114 15 -22 23 -23 138 -23 183 0 188 2 228
69 19 31 51 82 72 114 l38 58 52 -7 c29 -4 70 -12 92 -19z m4910 -309 c297
-34 500 -64 625 -92 36 -7 121 -25 190 -39 69 -14 136 -29 150 -34 14 -5 54
-17 90 -26 99 -26 422 -124 445 -134 11 -5 56 -22 100 -37 44 -16 91 -34 105
-41 22 -11 23 -13 5 -14 l-20 0 20 -9 c11 -5 27 -9 35 -9 13 -1 13 0 0 9 -13
8 -13 10 1 10 9 0 19 -3 23 -7 4 -5 28 -16 54 -26 26 -9 35 -15 20 -12 -16 3
-28 1 -28 -5 0 -5 -8 -10 -17 -10 -16 0 -16 -2 -3 -11 12 -9 12 -10 -3 -5 -10
3 -25 6 -33 6 -8 0 -14 5 -14 11 0 5 5 7 10 4 6 -3 20 -3 31 0 38 12 4 27 -67
30 -50 2 -60 0 -36 -5 19 -4 39 -13 45 -20 10 -10 8 -11 -8 -6 -32 12 -113 35
-205 58 -47 12 -87 24 -90 27 -3 4 -12 7 -20 8 -8 1 -46 9 -85 17 -284 65
-594 120 -886 156 -277 34 -817 49 -1074 30 -71 -5 -170 -12 -220 -15 -165
-10 -563 -68 -795 -116 -220 -44 -598 -136 -675 -164 -22 -7 -80 -26 -130 -41
-49 -14 -94 -30 -100 -33 -5 -4 -30 -13 -55 -20 -52 -15 -267 -96 -292 -111
-10 -6 -23 -10 -30 -9 -7 0 10 12 37 26 30 14 39 22 23 19 -15 -3 -30 -2 -33
4 -3 6 1 7 9 4 14 -5 16 6 16 75 l0 81 32 0 c41 0 34 6 -17 13 -23 4 -34 3
-27 -2 9 -5 3 -8 -18 -7 -25 1 -28 3 -15 11 9 6 24 16 33 23 18 14 17 14 -33
-3 -20 -7 -20 -6 -1 9 11 9 28 16 37 16 10 0 34 9 54 21 24 15 44 19 63 15 15
-4 22 -3 15 2 -28 18 510 184 797 246 148 32 226 47 286 56 34 5 67 12 75 14
30 11 411 55 559 66 85 6 166 13 180 15 14 1 183 2 375 0 245 -1 392 -7 490
-19z m-4195 -66 c11 -8 8 -9 -12 -4 -27 6 -28 5 -28 -39 l0 -46 -37 4 c-21 2
-47 4 -58 5 -19 1 -19 2 4 20 13 11 29 20 37 20 8 0 14 4 14 9 0 16 30 41 48
41 9 0 24 -5 32 -10z m90 -99 c0 -6 9 -15 20 -21 11 -6 25 -20 31 -33 11 -20
11 -21 -4 -8 -11 9 -17 10 -17 2 0 -6 -8 -11 -17 -11 -17 1 -17 1 0 11 21 12
22 29 2 29 -8 0 -21 13 -29 28 -8 16 -22 34 -30 41 -9 8 -16 18 -16 23 0 5 14
-4 30 -20 17 -17 30 -35 30 -41z m-2330 38 c41 -18 42 -19 12 -14 -46 7 -70
-9 -74 -47 -3 -29 -7 -33 -40 -39 -27 -4 -35 -2 -31 7 3 7 14 14 26 16 12 2
23 12 25 22 5 22 20 40 42 49 10 4 8 6 -7 6 -12 1 -23 -5 -26 -11 -2 -7 -8
-10 -12 -6 -10 9 13 38 29 37 6 0 31 -9 56 -20z m2290 -43 c0 -12 6 -28 13
-36 10 -12 9 -12 -4 -2 -17 13 -33 76 -17 66 4 -3 8 -15 8 -28z m8070 -17 c0
-5 -3 -8 -7 -6 -5 3 -9 -14 -9 -36 -1 -23 -4 -53 -7 -67 -20 -88 -20 -97 2
-112 11 -8 18 -18 13 -23 -4 -5 -1 -5 6 -1 7 4 25 -2 42 -14 25 -18 36 -20 63
-12 17 5 50 8 71 7 30 -2 43 2 57 18 10 12 18 27 19 33 0 7 14 40 31 75 l31
62 18 -24 c10 -13 17 -25 15 -28 -3 -2 2 -13 10 -25 8 -11 15 -30 14 -41 -1
-14 -4 -10 -11 13 -6 17 -15 32 -19 32 -5 0 -9 7 -9 16 0 8 -4 13 -9 10 -5 -3
-7 -16 -4 -29 4 -19 3 -20 -7 -5 -8 13 -8 24 0 40 11 22 10 22 -4 4 -18 -23
-20 -42 -6 -51 6 -3 10 -14 10 -23 -1 -16 -2 -16 -13 -1 -11 14 -12 10 -12
-27 0 -24 3 -44 8 -44 4 0 7 10 7 23 0 16 6 23 21 24 17 2 19 -1 10 -10 -6 -6
-11 -24 -11 -40 0 -16 -4 -26 -10 -22 -6 4 -5 -5 2 -19 14 -32 31 -34 24 -3
-3 12 -3 16 0 10 8 -18 27 -16 21 1 -3 8 1 22 10 33 14 17 14 17 9 0 -3 -10
-6 -25 -6 -32 0 -8 -14 -30 -31 -50 -24 -27 -37 -34 -53 -30 -15 5 -17 4 -7
-3 22 -15 -19 -32 -115 -48 -76 -12 -144 -41 -144 -62 0 -7 -34 -47 -94 -112
-18 -19 -59 -57 -91 -85 -32 -27 -67 -58 -77 -67 -10 -10 -21 -18 -24 -18 -3
0 -23 -13 -43 -28 -48 -38 -207 -130 -301 -175 -92 -43 -274 -114 -344 -134
-28 -8 -76 -21 -106 -29 -199 -57 -506 -113 -700 -129 -36 -3 -119 -10 -185
-17 -71 -8 -262 -13 -470 -13 -328 0 -442 5 -920 40 -104 8 -235 17 -290 20
-55 3 -194 12 -310 20 -115 9 -304 22 -420 30 -115 8 -282 20 -370 27 -364 29
-1345 9 -2310 -47 -132 -8 -247 -13 -255 -13 -8 1 -66 -2 -128 -6 -93 -6 -112
-5 -106 6 6 10 4 10 -9 0 -9 -8 -38 -15 -64 -17 -26 -1 -64 -6 -83 -9 -35 -6
-35 -6 -5 5 17 5 50 12 74 15 25 3 50 9 57 15 6 5 32 10 57 11 26 1 43 6 40
12 -4 5 4 7 17 3 13 -3 29 -2 36 3 6 6 24 12 40 14 16 3 54 10 84 15 168 31
224 40 228 36 3 -3 11 0 17 5 7 6 50 15 96 21 46 6 98 13 114 15 17 2 41 6 55
9 14 3 43 7 65 10 22 3 85 12 140 20 150 21 611 72 900 100 88 8 261 18 385
21 205 6 350 2 1002 -26 276 -12 892 -55 1208 -85 85 -8 189 -17 230 -21 41
-3 140 -12 220 -21 210 -23 873 -23 1055 0 483 63 822 178 1095 374 75 54 240
212 240 231 0 6 4 12 9 12 13 0 76 102 73 118 -2 7 -21 38 -43 69 -43 63 -46
79 -23 126 36 70 214 184 214 136z m-10540 -79 c0 -11 -6 -20 -14 -20 -8 0
-18 -9 -21 -20 -3 -11 -11 -20 -16 -20 -8 0 40 79 49 80 1 0 2 -9 2 -20z
m2590 6 c0 -8 5 -16 11 -18 7 -2 5 -9 -6 -18 -15 -12 -16 -12 -13 2 1 10 -6
24 -17 32 -20 15 -20 15 3 16 12 0 22 -6 22 -14z m-33 -38 c-3 -8 -6 -5 -6 6
-1 11 2 17 5 13 3 -3 4 -12 1 -19z m-67 -97 c-86 -83 -87 -86 -65 -146 5 -16
5 -17 -4 -5 -10 13 -12 13 -21 0 -8 -11 -9 -4 -5 25 l5 40 -15 -30 -14 -30 2
37 c1 22 7 38 14 38 7 0 36 24 65 52 51 51 107 98 116 98 3 0 -32 -36 -78 -79z
m10 66 c0 -2 -9 -12 -20 -22 -24 -21 -27 -14 -4 9 15 15 24 20 24 13z m8390
-47 c0 -5 -7 -10 -15 -10 -8 0 -15 5 -15 10 0 6 7 10 15 10 8 0 15 -4 15 -10z
m-8480 -45 c-13 -14 -26 -23 -28 -20 -7 7 29 45 41 45 6 0 0 -11 -13 -25z
m8515 5 c3 -5 2 -10 -4 -10 -5 0 -13 5 -16 10 -3 6 -2 10 4 10 5 0 13 -4 16
-10z m-31 -25 c-6 -16 -24 -21 -24 -7 0 11 11 22 21 22 5 0 6 -7 3 -15z
m-7274 -25 c-8 -5 -19 -10 -25 -10 -5 0 -3 5 5 10 8 5 20 10 25 10 6 0 3 -5
-5 -10z m4870 -20 c13 -9 13 -10 0 -9 -8 0 -24 4 -35 9 l-20 9 20 0 c11 0 27
-4 35 -9z m-5030 -45 c-14 -8 -29 -14 -35 -14 -5 0 1 6 15 14 14 8 30 14 35
14 6 0 -1 -6 -15 -14z m5074 6 c4 -5 -3 -7 -14 -4 -23 6 -26 13 -6 13 8 0 17
-4 20 -9z m-4974 -11 c-8 -5 -19 -10 -25 -10 -5 0 -3 5 5 10 8 5 20 10 25 10
6 0 3 -5 -5 -10z m5097 -6 c-3 -3 -12 -4 -19 -1 -8 3 -5 6 6 6 11 1 17 -2 13
-5z m10 -30 c-3 -3 -12 -4 -19 -1 -8 3 -5 6 6 6 11 1 17 -2 13 -5z m-4993 -88
c-10 -8 -21 -12 -24 -10 -5 6 21 24 34 24 6 0 1 -6 -10 -14z m-1157 -92 c-5
-6 -47 78 -47 92 1 5 12 -13 26 -39 14 -27 23 -51 21 -53z m-43 40 c3 -8 2
-12 -4 -9 -6 3 -10 10 -10 16 0 14 7 11 14 -7z m26 -56 c0 -6 -7 -5 -15 2 -8
7 -15 17 -15 22 0 6 7 5 15 -2 8 -7 15 -17 15 -22z m1047 26 c-3 -3 -12 -4
-19 -1 -8 3 -5 6 6 6 11 1 17 -2 13 -5z m-920 -16 c13 0 20 -4 17 -9 -3 -5 7
-9 21 -9 15 0 24 4 20 10 -4 6 1 7 11 3 16 -6 15 -8 -4 -16 -15 -7 -34 -7 -57
0 -21 7 -46 8 -63 3 -15 -5 -21 -9 -13 -9 8 -1 12 -3 10 -6 -3 -2 -18 0 -35 4
-28 9 -28 9 -4 11 14 1 19 4 11 7 -23 9 10 24 39 17 14 -3 35 -6 47 -6z m-152
-37 c-6 -5 -25 10 -25 20 0 5 6 4 14 -3 8 -7 12 -15 11 -17z m-156 -25 c-2
-20 -2 -20 -6 2 -2 12 -9 22 -14 22 -5 0 -9 5 -9 11 0 8 5 8 15 -1 8 -7 14
-22 14 -34z m461 36 c0 -5 -15 -8 -34 -8 -19 1 -32 4 -29 9 6 10 63 9 63 -1z
m40 -17 c0 -15 -18 -30 -27 -22 -2 3 -2 15 2 26 7 23 25 19 25 -4z m7 -47 c-3
-8 -6 -5 -6 6 -1 11 2 17 5 13 3 -3 4 -12 1 -19z m-2987 2 c0 -5 -12 -10 -27
-9 l-28 1 25 8 c14 4 26 8 28 9 1 1 2 -3 2 -9z m1170 -165 c0 -8 5 -15 12 -15
6 0 8 -3 5 -7 -4 -3 -16 2 -27 12 -15 13 -29 16 -57 12 -26 -5 -33 -3 -23 3
25 16 90 12 90 -5z m-260 -5 c0 -5 -15 -10 -32 -9 -31 1 -32 1 -8 9 35 11 40
11 40 0z m88 3 c-10 -2 -26 -2 -35 0 -10 3 -2 5 17 5 19 0 27 -2 18 -5z m55 0
c-7 -2 -19 -2 -25 0 -7 3 -2 5 12 5 14 0 19 -2 13 -5z m-213 -7 c0 -3 -4 -8
-10 -11 -5 -3 -10 -1 -10 4 0 6 5 11 10 11 6 0 10 -2 10 -4z m278 -13 c-10 -2
-26 -2 -35 0 -10 3 -2 5 17 5 19 0 27 -2 18 -5z m-783 -33 c3 -5 2 -10 -4 -10
-5 0 -16 -3 -25 -6 -11 -4 -16 -1 -16 10 0 18 35 22 45 6z m785 -110 c0 -5 -2
-10 -4 -10 -3 0 -8 5 -11 10 -3 6 -1 10 4 10 6 0 11 -4 11 -10z m60 0 c0 -5
-2 -10 -4 -10 -3 0 -8 5 -11 10 -3 6 -1 10 4 10 6 0 11 -4 11 -10z m-245 -30
c-3 -5 -16 -10 -28 -9 -20 1 -20 2 3 9 14 4 26 8 28 9 2 1 0 -3 -3 -9z m-75
-10 c11 -8 7 -9 -15 -4 -37 8 -45 14 -19 14 10 0 26 -5 34 -10z m-250 -34 c0
-2 -7 -6 -15 -10 -8 -3 -15 -1 -15 4 0 6 7 10 15 10 8 0 15 -2 15 -4z m-263
-52 c-3 -3 -12 -4 -19 -1 -8 3 -5 6 6 6 11 1 17 -2 13 -5z m1311 -461 l-3 -48
-116 -6 c-96 -5 -122 -9 -152 -28 -84 -52 -111 -114 -106 -243 5 -105 30 -149
109 -192 46 -25 66 -29 162 -34 l109 -5 -3 -46 -3 -46 -110 1 c-145 2 -207 24
-285 103 -69 69 -90 127 -90 247 0 141 52 239 159 297 64 35 111 45 234 46
l98 1 -3 -47z m2337 20 c54 -29 104 -80 126 -128 24 -52 24 -138 0 -190 -24
-54 -100 -119 -156 -135 -25 -7 -45 -15 -45 -19 0 -3 50 -49 110 -101 l109
-95 -75 -3 -76 -3 -106 93 c-59 51 -108 96 -110 100 -2 4 -23 8 -47 8 l-44 0
-3 -97 -3 -98 -52 -3 -52 -3 -3 146 c-2 81 -1 149 1 151 2 2 79 4 170 4 144 0
170 2 205 20 109 53 116 202 14 257 -27 14 -65 18 -208 21 -96 2 -178 8 -181
14 -4 7 -4 59 0 86 1 2 88 2 194 0 173 -3 196 -5 232 -25z m1132 -7 c72 -36
114 -75 149 -138 28 -51 29 -58 29 -178 0 -114 -2 -129 -24 -169 -71 -128
-188 -181 -398 -181 l-113 0 0 175 0 175 55 0 55 0 0 -126 0 -127 78 6 c116 9
176 40 219 115 23 39 26 55 26 131 -1 104 -17 146 -74 194 -52 45 -106 57
-249 57 l-110 0 0 51 0 52 153 -5 c139 -5 157 -8 204 -32z m923 -316 l0 -350
-55 0 -55 0 0 350 0 350 55 0 55 0 0 -350z m1170 300 l0 -50 -180 0 c-232 0
-250 -8 -250 -103 1 -87 26 -97 249 -97 l181 0 0 -50 0 -50 -189 0 c-176 0
-190 -1 -215 -21 -24 -19 -27 -27 -24 -77 3 -47 7 -58 31 -76 26 -19 44 -21
213 -24 l184 -3 0 -50 0 -50 -192 3 c-179 3 -196 5 -241 27 -26 12 -60 39 -75
59 -24 32 -27 44 -27 117 0 73 3 85 27 117 27 35 27 36 8 53 -29 26 -43 80
-38 148 4 69 28 111 80 142 50 29 81 33 276 34 l182 1 0 -50z m1170 0 l0 -50
-180 0 c-227 0 -250 -9 -252 -98 -2 -83 31 -102 182 -102 122 0 165 -12 213
-58 37 -35 57 -84 57 -139 0 -60 -19 -101 -67 -144 -55 -49 -106 -59 -313 -59
l-170 0 0 50 0 50 174 0 c96 0 186 4 200 10 72 27 90 107 37 161 -29 29 -30
29 -148 29 -139 0 -179 14 -236 80 -36 42 -37 46 -37 121 0 77 0 77 43 124 61
67 89 74 310 75 l187 0 0 -50z m1190 0 l0 -50 -181 0 c-223 0 -248 -10 -249
-97 0 -95 18 -103 250 -103 l180 0 0 -50 0 -50 -189 0 c-176 0 -190 -1 -215
-21 -24 -19 -27 -27 -24 -77 3 -47 7 -58 31 -76 26 -19 44 -21 213 -24 l184
-3 0 -50 0 -49 -172 0 c-187 0 -232 8 -291 48 -57 39 -80 90 -75 172 3 54 9
74 30 103 24 31 26 36 12 48 -30 25 -44 68 -44 138 0 67 1 70 43 116 61 67 89
74 310 75 l187 0 0 -50z m732 -247 l3 -298 218 -3 217 -2 0 -50 0 -50 -270 0
-270 0 0 350 0 350 50 0 50 0 2 -297z m-10075 260 c11 -28 131 -286 236 -505
80 -169 79 -158 12 -158 l-56 0 -56 118 c-31 64 -78 164 -105 222 l-50 105
-24 -50 c-13 -27 -51 -108 -85 -180 -110 -236 -95 -215 -156 -215 -29 0 -53 5
-53 10 0 6 33 81 74 168 40 86 94 200 118 252 109 233 122 260 128 260 3 0 11
-12 17 -27z m2408 -35 c16 -35 53 -115 83 -178 30 -63 86 -182 124 -265 39
-82 74 -158 79 -167 9 -16 4 -18 -49 -18 l-59 0 -45 93 c-25 50 -71 149 -103
219 -46 101 -62 125 -72 116 -7 -6 -13 -14 -13 -18 0 -5 -20 -50 -44 -102 -24
-51 -66 -141 -94 -200 l-51 -108 -55 0 c-31 0 -56 4 -56 9 0 5 35 83 78 173
43 89 114 241 157 335 44 95 83 173 86 173 4 0 19 -28 34 -62z m2030 -948
c453 -5 460 -5 190 -10 l-280 -4 245 -6 c186 -4 217 -7 130 -10 l-115 -4 75
-6 75 -6 -60 -4 c-33 -1 -50 -5 -38 -7 20 -4 22 -10 20 -44 -2 -21 0 -39 5
-39 4 0 8 -4 8 -8 0 -14 -341 -17 -2205 -17 -1850 0 -2182 3 -2191 17 -3 4 2
8 10 8 22 0 20 20 -1 21 -17 1 -17 2 0 6 10 3 17 14 17 28 0 18 6 25 28 28 15
2 -2 6 -38 7 -61 4 -58 4 35 10 l100 6 -115 4 c-114 4 -114 4 60 10 l175 6
-220 4 c-199 4 -180 5 185 10 506 7 3273 7 3905 0z m2980 0 c133 -5 152 -7 85
-10 l-85 -4 80 -6 c63 -5 71 -7 35 -10 l-45 -3 45 -7 45 -7 -40 -2 c-22 -1
-35 -5 -30 -9 17 -12 11 -67 -9 -88 -19 -18 -43 -19 -645 -22 -618 -4 -816 1
-805 19 3 5 -2 9 -10 9 -12 0 -16 10 -16 40 0 29 -5 43 -17 48 -14 5 -10 8 17
13 32 6 30 7 -20 9 -55 4 -55 4 20 10 l75 6 -65 4 c-233 14 998 22 1385 10z
m1415 0 c63 -3 95 -8 70 -10 l-45 -3 35 -7 35 -7 -30 -3 c-27 -2 -28 -3 -6 -7
13 -3 20 -8 14 -11 -6 -4 -13 -29 -15 -55 -4 -38 -2 -47 9 -43 8 3 11 1 8 -5
-4 -5 -15 -7 -26 -4 -11 4 -19 2 -19 -4 0 -13 -658 -15 -725 -3 l-40 7 3 45
c2 25 9 49 15 53 7 5 1 7 -15 4 -34 -5 -34 -3 -5 28 17 18 35 25 77 28 97 6
541 5 660 -3z m780 0 c30 -4 46 -8 35 -10 -13 -2 -8 -5 15 -10 l35 -7 -40 -3
c-22 -1 -33 -4 -23 -7 23 -6 32 -33 10 -33 -12 0 -14 -3 -4 -8 9 -6 3 -19 -24
-50 l-36 -42 -138 0 c-155 0 -205 6 -191 24 6 7 6 18 1 26 -6 9 5 29 36 64 24
28 44 54 44 58 0 10 206 9 280 -2z m510 1 c14 -3 26 -14 28 -25 2 -12 -1 -16
-9 -10 -8 4 -10 3 -5 -5 4 -6 -6 -24 -23 -42 -17 -16 -38 -43 -48 -59 -16 -28
-21 -30 -78 -30 -62 0 -97 11 -76 24 6 4 9 12 5 17 -3 5 18 39 48 74 49 59 56
64 93 63 22 0 51 -3 65 -7z m615 0 c22 -5 31 -10 20 -11 -17 -2 -17 -3 5 -10
14 -4 19 -8 11 -9 -8 -1 -24 -9 -35 -19 -12 -10 -59 -42 -105 -71 l-83 -53
-75 4 c-77 4 -103 18 -81 45 7 9 7 13 -2 13 -6 0 3 19 21 43 58 75 62 77 179
76 58 0 123 -4 145 -8z m-5932 -48 c-7 -2 -19 -2 -25 0 -7 3 -2 5 12 5 14 0
19 -2 13 -5z"/>
<path d="M3231 8914 c0 -11 3 -14 6 -6 3 7 2 16 -1 19 -3 4 -6 -2 -5 -13z"/>
<path d="M3241 8874 c0 -11 3 -14 6 -6 3 7 2 16 -1 19 -3 4 -6 -2 -5 -13z"/>
<path d="M3252 8825 c-1 -11 2 -26 7 -33 7 -11 9 -10 14 3 4 9 3 13 -2 10 -5
-3 -12 5 -14 17 -4 20 -4 20 -5 3z"/>
<path d="M3081 8628 c-1 -10 -8 -18 -16 -18 -8 0 -15 -4 -15 -10 0 -5 4 -10 9
-10 14 0 33 28 28 42 -4 8 -6 7 -6 -4z"/>
<path d="M2886 8601 c5 -5 23 -13 39 -16 l30 -7 -29 16 c-31 18 -56 22 -40 7z"/>
<path d="M3120 8410 c0 -5 7 -10 16 -10 8 0 12 5 9 10 -3 6 -10 10 -16 10 -5
0 -9 -4 -9 -10z"/>
<path d="M2620 8375 c12 -13 27 -22 32 -19 4 3 12 -5 17 -18 l10 -23 0 23 c1
15 -7 26 -23 32 -13 5 -27 14 -31 19 -3 6 -11 11 -17 11 -6 0 -1 -11 12 -25z"/>
<path d="M2978 8313 c7 -3 16 -2 19 1 4 3 -2 6 -13 5 -11 0 -14 -3 -6 -6z"/>
<path d="M2946 8303 c-11 -12 -6 -30 9 -30 8 0 15 6 15 13 0 15 -15 26 -24 17z"/>
<path d="M2893 8270 c6 -10 15 -16 20 -13 13 8 3 26 -16 29 -13 2 -14 -1 -4
-16z"/>
<path d="M2880 8216 c0 -13 7 -26 14 -29 10 -4 13 -1 10 7 -3 8 -1 17 5 21 18
10 12 25 -9 25 -14 0 -20 -7 -20 -24z"/>
<path d="M4840 8220 c13 -24 35 -27 26 -4 -3 9 -6 18 -6 20 0 2 -7 4 -15 4
-13 0 -14 -4 -5 -20z"/>
<path d="M4855 8150 c3 -5 8 -10 11 -10 2 0 4 5 4 10 0 6 -5 10 -11 10 -5 0
-7 -4 -4 -10z"/>
<path d="M2687 8088 c-9 -23 -15 -43 -13 -46 2 -2 8 7 12 20 7 22 7 22 15 3 4
-11 8 -29 8 -40 0 -20 0 -20 -8 0 -8 19 -8 19 -20 -3 -11 -20 -10 -22 11 -18
20 3 23 9 23 44 0 22 -3 38 -7 35 -5 -2 -8 0 -8 6 0 5 5 13 10 16 12 8 13 25
2 25 -5 0 -16 -19 -25 -42z"/>
<path d="M3085 8090 c-3 -5 -1 -10 4 -10 6 0 11 5 11 10 0 6 -2 10 -4 10 -3 0
-8 -4 -11 -10z"/>
<path d="M2725 7990 c3 -5 8 -10 11 -10 2 0 4 5 4 10 0 6 -5 10 -11 10 -5 0
-7 -4 -4 -10z"/>
<path d="M2822 7965 c1 -19 -1 -37 -5 -41 -4 -4 -7 1 -7 11 0 10 -3 16 -6 12
-3 -3 -3 -16 1 -28 l7 -22 14 24 c16 29 18 79 4 79 -6 0 -10 -16 -8 -35z"/>
<path d="M2495 7936 c21 -8 41 -13 44 -11 8 8 -3 13 -44 19 l-40 7 40 -15z"/>
<path d="M2618 7943 c7 -3 16 -2 19 1 4 3 -2 6 -13 5 -11 0 -14 -3 -6 -6z"/>
<path d="M3142 7920 c0 -19 2 -27 5 -17 2 9 2 25 0 35 -3 9 -5 1 -5 -18z"/>
<path d="M2458 7923 c7 -3 16 -2 19 1 4 3 -2 6 -13 5 -11 0 -14 -3 -6 -6z"/>
<path d="M2598 7923 c7 -3 16 -2 19 1 4 3 -2 6 -13 5 -11 0 -14 -3 -6 -6z"/>
<path d="M2385 7852 c3 -20 1 -31 -5 -27 -6 3 -10 -5 -10 -19 0 -14 4 -26 9
-26 13 0 20 49 10 79 -8 23 -9 23 -4 -7z"/>
<path d="M2770 7862 c0 -12 -4 -22 -10 -22 -5 0 -10 -4 -10 -10 0 -5 4 -10 10
-10 11 0 25 48 16 57 -3 4 -6 -3 -6 -15z"/>
<path d="M3152 7840 c0 -19 2 -27 5 -17 2 9 2 25 0 35 -3 9 -5 1 -5 -18z"/>
<path d="M2803 7800 c0 -25 2 -35 4 -22 2 12 2 32 0 45 -2 12 -4 2 -4 -23z"/>
<path d="M2828 7827 c-12 -29 -10 -83 3 -70 6 6 9 28 7 49 -2 29 -5 34 -10 21z"/>
<path d="M3002 7810 c0 -19 2 -27 5 -17 2 9 2 25 0 35 -3 9 -5 1 -5 -18z"/>
<path d="M3668 7803 c17 -2 47 -2 65 0 17 2 3 4 -33 4 -36 0 -50 -2 -32 -4z"/>
<path d="M2719 7783 c-12 -15 -12 -16 4 -10 10 4 25 7 33 7 8 0 14 5 14 10 0
16 -36 11 -51 -7z"/>
<path d="M2660 7780 c0 -5 10 -10 23 -10 18 0 19 2 7 10 -19 13 -30 13 -30 0z"/>
<path d="M3738 7783 c7 -3 16 -2 19 1 4 3 -2 6 -13 5 -11 0 -14 -3 -6 -6z"/>
<path d="M3665 7770 c3 -5 14 -10 23 -10 15 0 15 2 2 10 -20 13 -33 13 -25 0z"/>
<path d="M2387 7743 c-4 -3 -7 -20 -6 -37 l1 -31 9 34 c10 33 8 47 -4 34z"/>
<path d="M2363 7695 c0 -22 2 -30 4 -17 2 12 2 30 0 40 -3 9 -5 -1 -4 -23z"/>
<path d="M2391 7671 c-10 -6 1 -8 30 -4 24 3 46 7 48 9 10 9 -65 3 -78 -5z"/>
<path d="M3752 7676 c4 -5 3 -15 -3 -23 -13 -14 -1 -17 19 -4 10 6 9 11 -5 22
-10 7 -15 9 -11 5z"/>
<path d="M3788 7673 c7 -3 16 -2 19 1 4 3 -2 6 -13 5 -11 0 -14 -3 -6 -6z"/>
<path d="M3828 7673 c7 -3 16 -2 19 1 4 3 -2 6 -13 5 -11 0 -14 -3 -6 -6z"/>
<path d="M3888 7673 c7 -3 16 -2 19 1 4 3 -2 6 -13 5 -11 0 -14 -3 -6 -6z"/>
<path d="M3690 7660 c-18 -12 -2 -12 25 0 13 6 15 9 5 9 -8 0 -22 -4 -30 -9z"/>
<path d="M3698 7633 c6 -2 18 -2 25 0 6 3 1 5 -13 5 -14 0 -19 -2 -12 -5z"/>
<path d="M10591 8486 c2 -2 15 -9 29 -15 24 -11 24 -11 6 3 -16 13 -49 24 -35
12z"/>
<path d="M6476 8431 c-4 -5 3 -7 14 -4 23 6 26 13 6 13 -8 0 -17 -4 -20 -9z"/>
<path d="M10790 8421 c13 -10 13 -11 0 -11 -13 0 -13 -2 -1 -9 11 -7 10 -10
-5 -13 -18 -4 -17 -4 2 -10 17 -4 21 -1 19 20 0 14 -7 27 -15 30 -13 3 -12 2
0 -7z"/>
<path d="M6370 8386 c0 -9 5 -16 10 -16 6 0 10 4 10 9 0 6 -4 13 -10 16 -5 3
-10 -1 -10 -9z"/>
<path d="M10850 8380 c8 -5 20 -10 25 -10 6 0 3 5 -5 10 -8 5 -19 10 -25 10
-5 0 -3 -5 5 -10z"/>
<path d="M6338 8353 c7 -3 16 -2 19 1 4 3 -2 6 -13 5 -11 0 -14 -3 -6 -6z"/>
<path d="M6475 8210 c-3 -6 1 -7 9 -4 18 7 21 14 7 14 -6 0 -13 -4 -16 -10z"/>
<path d="M6418 8193 c-10 -2 -18 -9 -18 -14 0 -6 8 -5 20 1 11 6 20 13 20 15
0 3 -1 4 -2 4 -2 -1 -11 -3 -20 -6z"/>
<path d="M4947 8701 c-3 -12 -19 -24 -38 -30 -32 -9 -32 -9 -7 -10 14 -1 33
-3 41 -6 10 -4 14 3 15 30 2 39 -3 45 -11 16z"/>
<path d="M13386 8374 c-4 -9 -4 -19 -1 -22 2 -3 7 3 11 12 4 9 4 19 1 22 -2 3
-7 -3 -11 -12z"/>
<path d="M13388 8323 c7 -3 16 -2 19 1 4 3 -2 6 -13 5 -11 0 -14 -3 -6 -6z"/>
<path d="M13341 8225 c12 -13 22 -15 34 -7 12 6 14 11 6 16 -6 4 -11 2 -11 -4
0 -8 -7 -7 -22 1 -22 11 -22 10 -7 -6z"/>
<path d="M5978 7413 c7 -3 16 -2 19 1 4 3 -2 6 -13 5 -11 0 -14 -3 -6 -6z"/>
<path d="M5628 7393 c7 -3 16 -2 19 1 4 3 -2 6 -13 5 -11 0 -14 -3 -6 -6z"/>
<path d="M5148 8033 c6 -2 18 -2 25 0 6 3 1 5 -13 5 -14 0 -19 -2 -12 -5z"/>
</g>
</svg>
